<svg xmlns="http://www.w3.org/2000/svg" viewBox="0 0 600 420"><defs><linearGradient id="bg" x1="0" y1="0" x2="1" y2="1"><stop stop-color="#f8efe4"/><stop offset="1" stop-color="#eadbc8"/></linearGradient><radialGradient id="egg"><stop offset="0" stop-color="#fff5b8"/><stop offset="1" stop-color="#f0c65c"/></radialGradient></defs><rect width="600" height="420" fill="url(#bg)"/><ellipse cx="300" cy="330" rx="170" ry="34" fill="#6e5b45" opacity=".12"/><path d="M120 180h360c-12 132-77 190-180 190s-168-58-180-190z" fill="#f5f0e8" stroke="#d5c8b8" stroke-width="8"/><ellipse cx="300" cy="180" rx="180" ry="86" fill="#fffaf3" stroke="#d5c8b8" stroke-width="8"/><ellipse cx="300" cy="185" rx="150" ry="62" fill="url(#egg)"/><g fill="#6c9b59"><circle cx="272" cy="160" r="7"/><circle cx="325" cy="173" r="6"/><circle cx="294" cy="199" r="5"/><path d="M260 145l18-15M336 156l16-17M286 210l-13 16" stroke="#6c9b59" stroke-width="6" stroke-linecap="round"/></g><g fill="#d1a64e"><circle cx="247" cy="191" r="4"/><circle cx="343" cy="198" r="4"/><circle cx="309" cy="151" r="4"/></g></svg>